# This file uses centimeters as units for non-parametric coordinates.

mtllib FridgeMainDoor.mtl
g default
v -4.460836 10.751127 -19.852373
v -4.460830 10.024765 -19.852373
v -4.399008 10.039069 -19.853396
v -4.399008 10.757413 -19.853396
v -4.459359 10.024765 -20.984884
v -4.458867 10.024765 -21.362390
v -4.397045 10.039069 -21.359852
v -4.397537 10.039069 -20.983241
v -4.460836 12.930210 -19.852373
v -4.399008 12.912463 -19.853396
v -4.398516 12.912463 -20.230013
v -4.460343 12.930210 -20.229880
v -4.458867 12.203850 -21.362390
v -4.458867 12.930210 -21.362390
v -4.397045 12.912463 -21.359852
v -4.397045 12.194113 -21.359852
v -4.525261 12.186012 -20.972200
v -4.525261 12.892811 -20.972200
v -4.398516 10.039069 -20.230013
v -4.398516 10.757413 -20.230013
v -4.460836 12.203850 -19.852373
v -4.526683 12.892811 -19.880019
v -4.526683 12.186012 -19.880019
v -4.460343 10.024765 -20.229880
v -4.526683 10.065620 -19.880019
v -4.526208 10.065620 -20.244079
v -4.459359 12.930210 -20.984884
v -4.459061 12.930210 -21.213758
v -4.458867 10.751127 -21.362390
v -4.524786 10.065620 -21.336260
v -4.524786 10.772419 -21.336260
v -4.460836 11.477488 -19.852373
v -4.399008 11.475763 -19.853396
v -4.399008 12.194113 -19.853396
v -4.458867 11.477488 -21.362390
v -4.397045 11.475763 -21.359852
v -4.397045 10.757413 -21.359852
v -4.525261 11.479212 -20.972200
v -4.524786 11.479212 -21.336260
v -4.525261 10.772419 -20.972200
v -4.397537 11.475763 -20.983241
v -4.397537 12.194113 -20.983241
v -4.526683 11.479212 -19.880019
v -4.526683 10.772419 -19.880019
v -4.524786 12.186012 -21.336260
v -4.397537 10.757413 -20.983241
v -4.525261 10.065620 -20.972200
v -4.397537 12.912463 -20.983241
v -4.524786 12.892811 -21.336260
v -4.459852 10.024765 -20.607382
v -4.398023 10.039069 -20.606624
v -4.459852 12.930210 -20.607382
v -4.398030 12.912463 -20.606624
v -4.525737 12.892811 -20.608139
v -4.525737 12.186012 -20.608139
v -4.526208 12.186012 -20.244079
v -4.526208 12.892811 -20.244079
v -4.398023 10.757413 -20.606624
v -4.525737 10.065620 -20.608139
v -4.525737 11.479212 -20.608139
v -4.525737 10.772419 -20.608139
v -4.526208 10.772419 -20.244079
v -4.526208 11.479212 -20.244079
v -4.398030 11.475763 -20.606624
v -4.398030 12.194113 -20.606624
v -4.398516 12.194113 -20.230013
v -4.398516 11.475763 -20.230013
v -4.525012 12.892811 -21.164080
v -4.525001 12.186012 -21.173501
v -4.524990 11.835940 -21.178162
v -4.524903 11.837810 -21.249467
v -4.524903 12.186012 -21.246596
v -4.524914 12.892811 -21.240764
vt 0.509100 0.224700
vt 0.511100 0.222500
vt 0.509100 0.338800
vt 0.511100 0.337600
vt 0.282900 0.224700
vt 0.281000 0.222500
vt 0.341700 0.224700
vt 0.340800 0.222500
vt 0.509100 0.681100
vt 0.511100 0.682800
vt 0.451900 0.681100
vt 0.453000 0.682800
vt 0.282900 0.681100
vt 0.281000 0.682800
vt 0.282900 0.567000
vt 0.281000 0.567700
vt 0.310600 0.566200
vt 0.342600 0.566200
vt 0.312100 0.679300
vt 0.342600 0.679300
vt 0.751700 0.336300
vt 0.751700 0.220400
vt 0.805700 0.336300
vt 0.805700 0.220400
vt 0.507100 0.679300
vt 0.509100 0.567000
vt 0.507100 0.566200
vt 0.507100 0.226800
vt 0.451900 0.224700
vt 0.450900 0.226800
vt 0.306100 0.681100
vt 0.312100 0.679300
vt 0.341700 0.681100
vt 0.284800 0.226800
vt 0.282900 0.338800
vt 0.284800 0.339900
vt 0.511100 0.452700
vt 0.511100 0.567700
vt 0.509100 0.452900
vt 0.281000 0.452700
vt 0.281000 0.337600
vt 0.282900 0.452900
vt 0.342600 0.453100
vt 0.284800 0.453100
vt 0.342600 0.339900
vt 0.913800 0.452300
vt 0.967800 0.452300
vt 0.913800 0.568200
vt 0.967800 0.568200
vt 0.507100 0.453100
vt 0.507100 0.339900
vt 0.284800 0.566200
vt 0.913800 0.336300
vt 0.967800 0.336300
vt 0.342600 0.226800
vt 0.913800 0.684100
vt 0.967800 0.684100
vt 0.284800 0.679300
vt 0.394700 0.224700
vt 0.394800 0.222500
vt 0.453000 0.222500
vt 0.394800 0.682800
vt 0.340800 0.682800
vt 0.394700 0.681100
vt 0.394700 0.679300
vt 0.394700 0.566200
vt 0.450900 0.679300
vt 0.450900 0.566200
vt 0.859800 0.336300
vt 0.859800 0.220400
vt 0.913800 0.220400
vt 0.394700 0.226800
vt 0.394700 0.453100
vt 0.394700 0.339900
vt 0.450900 0.453100
vt 0.450900 0.339900
vt 0.859800 0.452300
vt 0.859800 0.568200
vt 0.805700 0.452300
vt 0.805700 0.568200
vt 0.859800 0.684100
vt 0.805700 0.684100
vt 0.751700 0.452300
vt 0.751700 0.568200
vt 0.751700 0.684100
vt 0.967800 0.220400
vt 0.300000 0.679300
vt 0.300000 0.679300
vt 0.299000 0.566200
vt 0.298600 0.510500
vt 0.309900 0.510200
vn 0.016544 0.000000 0.999863
vn 0.016544 0.000000 0.999863
vn 0.016543 0.000000 0.999863
vn 0.016543 0.000000 0.999863
vn 0.016544 0.000000 0.999863
vn 0.016542 0.000000 0.999863
vn -0.120896 -0.992665 -0.000200
vn 0.225393 -0.974268 0.000300
vn -0.163102 -0.986609 -0.000200
vn -0.163102 -0.986609 -0.000200
vn 0.225393 -0.974268 0.000300
vn 0.225393 -0.974268 0.000300
vn -0.068099 0.997679 -0.000100
vn 0.275989 0.961161 0.000400
vn -0.118100 0.993002 -0.000200
vn -0.118100 0.993002 -0.000200
vn 0.275989 0.961161 0.000400
vn 0.275989 0.961161 0.000400
vn -0.149201 0.000000 -0.988807
vn 0.040998 0.000000 -0.999159
vn -0.167398 0.000000 -0.985889
vn -0.167398 0.000000 -0.985889
vn 0.040998 0.000000 -0.999159
vn 0.040998 0.000000 -0.999159
vn -0.999999 0.000000 -0.001300
vn -0.999999 0.000000 -0.001300
vn -0.999999 0.000000 -0.001300
vn -0.999999 0.000000 -0.001300
vn -0.999999 0.000000 -0.001300
vn -0.999999 0.000000 -0.001300
vn 0.999999 0.000000 0.001300
vn 0.999999 0.000000 0.001300
vn 0.999999 0.000000 0.001300
vn 0.999999 0.000000 0.001300
vn 0.999999 0.000000 0.001300
vn 0.999999 0.000000 0.001300
vn -0.171708 0.000000 0.985148
vn -0.387114 0.000000 0.922032
vn -0.189304 -0.000000 0.981919
vn -0.189304 -0.000000 0.981919
vn -0.387114 0.000000 0.922032
vn -0.387114 -0.000000 0.922032
vn -0.115600 -0.993296 -0.000200
vn -0.526984 -0.849875 -0.000700
vn -0.163102 -0.986609 -0.000200
vn -0.163102 -0.986609 -0.000200
vn -0.526984 -0.849875 -0.000700
vn -0.526984 -0.849875 -0.000700
vn -0.118100 0.993002 -0.000200
vn -0.501793 0.864988 -0.000700
vn -0.118100 0.993002 -0.000200
vn -0.118100 0.993002 -0.000200
vn -0.501793 0.864988 -0.000700
vn -0.493714 0.869624 -0.000600
vn -0.141505 0.000000 -0.989938
vn -0.368510 0.000000 -0.929624
vn -0.167398 0.000000 -0.985889
vn -0.167398 0.000000 -0.985889
vn -0.368510 0.000000 -0.929624
vn -0.368510 0.000000 -0.929624
vn 0.016499 0.000000 0.999864
vn 0.016499 0.000000 0.999864
vn -0.189304 -0.000000 0.981919
vn -0.189304 -0.000000 0.981919
vn 0.016499 0.000000 0.999864
vn -0.189304 -0.000000 0.981919
vn 0.040998 0.000000 -0.999159
vn 0.040998 0.000000 -0.999159
vn -0.167398 0.000000 -0.985889
vn -0.167398 0.000000 -0.985889
vn 0.040998 0.000000 -0.999159
vn -0.167398 0.000000 -0.985889
vn -0.999999 0.000000 -0.001300
vn -0.999999 0.000000 -0.001300
vn -0.999999 0.000000 -0.001300
vn -0.999999 0.000000 -0.001300
vn -0.999999 0.000000 -0.001300
vn -0.999999 0.000000 -0.001300
vn 0.999999 0.000000 0.001300
vn 0.999999 0.000000 0.001300
vn 0.999999 0.000000 0.001300
vn 0.999999 0.000000 0.001300
vn 0.999999 0.000000 0.001300
vn 0.999999 0.000000 0.001300
vn -0.387114 -0.000000 0.922032
vn -0.387114 -0.000000 0.922032
vn -0.189304 -0.000000 0.981919
vn -0.189304 -0.000000 0.981919
vn -0.387114 -0.000000 0.922032
vn -0.189304 -0.000000 0.981919
vn -0.368510 0.000000 -0.929624
vn -0.368510 0.000000 -0.929624
vn -0.167398 0.000000 -0.985889
vn -0.167398 0.000000 -0.985889
vn -0.368510 0.000000 -0.929624
vn -0.167398 0.000000 -0.985889
vn -0.189304 -0.000000 0.981919
vn 0.016499 0.000000 0.999864
vn -0.189304 -0.000000 0.981919
vn -0.189304 -0.000000 0.981919
vn 0.016499 0.000000 0.999864
vn 0.016499 0.000000 0.999864
vn -0.167398 0.000000 -0.985889
vn 0.040998 0.000000 -0.999159
vn -0.167398 0.000000 -0.985889
vn -0.167398 0.000000 -0.985889
vn 0.040998 0.000000 -0.999159
vn 0.040998 0.000000 -0.999159
vn 0.999999 0.000000 0.001300
vn 0.999999 0.000000 0.001300
vn 0.999999 0.000000 0.001300
vn 0.999999 0.000000 0.001300
vn 0.999999 0.000000 0.001300
vn 0.999999 0.000000 0.001300
vn -0.189304 -0.000000 0.981919
vn -0.387114 -0.000000 0.922032
vn -0.189304 -0.000000 0.981919
vn -0.189304 -0.000000 0.981919
vn -0.387114 -0.000000 0.922032
vn -0.387114 -0.000000 0.922032
vn -0.167398 0.000000 -0.985889
vn -0.368510 0.000000 -0.929624
vn -0.167398 0.000000 -0.985889
vn -0.167398 0.000000 -0.985889
vn -0.368510 0.000000 -0.929624
vn -0.368510 0.000000 -0.929624
vn 0.016499 0.000000 0.999864
vn 0.016499 0.000000 0.999864
vn -0.189304 -0.000000 0.981919
vn -0.189304 -0.000000 0.981919
vn 0.016499 0.000000 0.999864
vn -0.171708 0.000000 0.985148
vn 0.040998 0.000000 -0.999159
vn 0.040998 0.000000 -0.999159
vn -0.167398 0.000000 -0.985889
vn -0.167398 0.000000 -0.985889
vn 0.040998 0.000000 -0.999159
vn -0.141505 0.000000 -0.989938
vn -0.999999 0.000000 -0.001300
vn -0.999999 0.000000 -0.001300
vn -0.999999 0.000000 -0.001300
vn -0.999999 0.000000 -0.001300
vn -0.999999 0.000000 -0.001300
vn -0.999999 0.000000 -0.001300
vn 0.999999 0.000000 0.001300
vn 0.999999 0.000000 0.001300
vn 0.999999 0.000000 0.001300
vn 0.999999 0.000000 0.001300
vn 0.999999 0.000000 0.001300
vn 0.999999 0.000000 0.001300
vn -0.387114 -0.000000 0.922032
vn -0.387078 -0.000000 0.922047
vn -0.189304 -0.000000 0.981919
vn -0.189304 -0.000000 0.981919
vn -0.387078 -0.000000 0.922047
vn -0.164107 -0.000000 0.986443
vn -0.368510 0.000000 -0.929624
vn -0.368510 0.000000 -0.929624
vn -0.167398 0.000000 -0.985889
vn -0.167398 0.000000 -0.985889
vn -0.368510 0.000000 -0.929624
vn -0.149201 0.000000 -0.988807
vn -0.163102 -0.986609 -0.000200
vn 0.225393 -0.974268 0.000300
vn -0.163102 -0.986609 -0.000200
vn -0.163102 -0.986609 -0.000200
vn 0.225393 -0.974268 0.000300
vn 0.225393 -0.974268 0.000300
vn 0.275989 0.961161 0.000400
vn 0.275989 0.961161 0.000400
vn -0.118100 0.993002 -0.000200
vn -0.118100 0.993002 -0.000200
vn 0.275989 0.961161 0.000400
vn -0.118100 0.993002 -0.000200
vn -0.999999 0.000000 -0.001300
vn -0.999999 0.000000 -0.001300
vn -0.999999 0.000000 -0.001300
vn -0.999999 0.000000 -0.001300
vn -0.999999 0.000000 -0.001300
vn -0.999999 0.000000 -0.001300
vn 0.999999 0.000000 0.001300
vn 0.999999 0.000000 0.001300
vn 0.999999 0.000000 0.001300
vn 0.999999 0.000000 0.001300
vn 0.999999 0.000000 0.001300
vn 0.999999 0.000000 0.001300
vn -0.526984 -0.849875 -0.000700
vn -0.526984 -0.849875 -0.000700
vn -0.163102 -0.986609 -0.000200
vn -0.163102 -0.986609 -0.000200
vn -0.526984 -0.849875 -0.000700
vn -0.163102 -0.986609 -0.000200
vn -0.493714 0.869624 -0.000600
vn -0.493714 0.869624 -0.000600
vn -0.118100 0.993002 -0.000200
vn -0.118100 0.993002 -0.000200
vn -0.493714 0.869624 -0.000600
vn -0.118100 0.993002 -0.000200
vn -0.999999 0.000000 -0.001300
vn -0.999999 0.000000 -0.001300
vn -0.999999 0.000000 -0.001300
vn -0.999999 0.000000 -0.001300
vn -0.999999 0.000000 -0.001300
vn -0.999999 0.000000 -0.001300
vn 0.999999 0.000000 0.001300
vn 0.999999 0.000000 0.001300
vn 0.999999 0.000000 0.001300
vn 0.999999 0.000000 0.001300
vn 0.999999 0.000000 0.001300
vn 0.999999 0.000000 0.001300
vn -0.999999 0.000000 -0.001300
vn -0.999999 0.000000 -0.001300
vn -0.999999 0.000000 -0.001300
vn -0.999999 0.000000 -0.001300
vn -0.999999 0.000000 -0.001300
vn -0.999999 0.000000 -0.001300
vn 0.999999 0.000000 0.001300
vn 0.999999 0.000000 0.001300
vn 0.999999 0.000000 0.001300
vn 0.999999 0.000000 0.001300
vn 0.999999 0.000000 0.001300
vn 0.999999 0.000000 0.001300
vn -0.999999 0.000000 -0.001300
vn -0.999999 0.000000 -0.001300
vn -0.999999 0.000000 -0.001300
vn -0.999999 0.000000 -0.001300
vn -0.999999 0.000000 -0.001300
vn -0.999999 0.000000 -0.001300
vn 0.999999 0.000000 0.001300
vn 0.999999 0.000000 0.001300
vn 0.999999 0.000000 0.001300
vn 0.999999 0.000000 0.001300
vn 0.999999 0.000000 0.001300
vn 0.999999 0.000000 0.001300
vn 0.275989 0.961161 0.000400
vn 0.275989 0.961161 0.000400
vn -0.118100 0.993002 -0.000200
vn -0.118100 0.993002 -0.000200
vn 0.275989 0.961161 0.000400
vn -0.118100 0.993002 -0.000200
vn 0.999999 0.000000 0.001300
vn 0.999999 0.000000 0.001300
vn 0.999999 0.000000 0.001300
vn 0.999999 0.000000 0.001300
vn 0.999999 0.000000 0.001300
vn 0.999999 0.000000 0.001300
vn -0.163102 -0.986609 -0.000200
vn -0.526984 -0.849875 -0.000700
vn -0.163102 -0.986609 -0.000200
vn -0.163102 -0.986609 -0.000200
vn -0.526984 -0.849875 -0.000700
vn -0.526984 -0.849875 -0.000700
vn 0.225393 -0.974268 0.000300
vn 0.225393 -0.974268 0.000300
vn -0.163102 -0.986609 -0.000200
vn -0.163102 -0.986609 -0.000200
vn 0.225393 -0.974268 0.000300
vn -0.115600 -0.993296 -0.000200
vn -0.999999 0.000000 -0.001300
vn -0.999999 0.000000 -0.001300
vn -0.999999 0.000000 -0.001300
vn -0.999999 0.000000 -0.001300
vn -0.999999 0.000000 -0.001300
vn -0.999999 0.000000 -0.001300
vn -0.493714 0.869624 -0.000600
vn -0.493714 0.869624 -0.000600
vn -0.118100 0.993002 -0.000200
vn -0.118100 0.993002 -0.000200
vn -0.493714 0.869624 -0.000600
vn -0.068099 0.997679 -0.000100
vn -0.999999 0.000000 -0.001300
vn -0.999999 0.000000 -0.001300
vn -0.999999 0.000000 -0.001300
vn -0.999999 0.000000 -0.001300
vn -0.999999 0.000000 -0.001300
vn -0.999999 0.000000 -0.001300
vn 0.999999 0.000000 0.001300
vn 0.999999 0.000000 0.001300
vn 0.999999 0.000000 0.001300
vn 0.999999 0.000000 0.001300
vn 0.999999 0.000000 0.001300
vn 0.999999 0.000000 0.001300
vn -0.999999 0.000000 -0.001300
vn -0.999999 0.000000 -0.001300
vn -0.999999 0.000000 -0.001300
vn -0.999999 0.000000 -0.001300
vn -0.999999 0.000000 -0.001300
vn -0.999999 0.000000 -0.001300
vn 0.999999 0.000000 0.001300
vn 0.999999 0.000000 0.001300
vn 0.999999 0.000000 0.001300
vn 0.999999 0.000000 0.001300
vn 0.999999 0.000000 0.001300
vn 0.999999 0.000000 0.001300
vn -0.999999 0.000000 -0.001300
vn -0.999999 0.000000 -0.001300
vn -0.999999 0.000000 -0.001300
vn -0.999999 0.000000 -0.001300
vn -0.999999 0.000000 -0.001300
vn -0.999999 0.000000 -0.001300
vn 0.999999 0.000000 0.001300
vn 0.999999 0.000000 0.001300
vn 0.999999 0.000000 0.001300
vn 0.999999 0.000000 0.001300
vn 0.999999 0.000000 0.001300
vn 0.999999 0.000000 0.001300
vn -0.163102 -0.986609 -0.000200
vn 0.225393 -0.974268 0.000300
vn -0.163102 -0.986609 -0.000200
vn -0.163102 -0.986609 -0.000200
vn 0.225393 -0.974268 0.000300
vn 0.225393 -0.974268 0.000300
vn -0.999999 0.000000 -0.001300
vn -0.999999 0.000000 -0.001300
vn -0.999999 0.000000 -0.001300
vn -0.999999 0.000000 -0.001300
vn -0.999999 0.000000 -0.001300
vn -0.999999 0.000000 -0.001300
vn -0.118100 0.993002 -0.000200
vn -0.493714 0.869624 -0.000600
vn -0.118100 0.993002 -0.000200
vn -0.118100 0.993002 -0.000200
vn -0.493714 0.869624 -0.000600
vn -0.493714 0.869624 -0.000600
vn -0.999999 0.000000 -0.001300
vn -0.999999 0.000000 -0.001300
vn -0.999999 0.000000 -0.001300
vn -0.999999 0.000000 -0.001300
vn -0.999999 0.000000 -0.001300
vn -0.999999 0.000000 -0.001300
vn 0.999999 0.000000 0.001300
vn 0.999999 0.000000 0.001300
vn 0.999999 0.000000 0.001300
vn 0.999999 0.000000 0.001300
vn 0.999999 0.000000 0.001300
vn 0.999999 0.000000 0.001300
vn -0.999999 0.000000 -0.001300
vn -0.999999 0.000000 -0.001300
vn -0.999999 0.000000 -0.001300
vn -0.999999 0.000000 -0.001300
vn -0.999999 0.000000 -0.001300
vn -0.999999 0.000000 -0.001300
vn 0.999999 0.000000 0.001300
vn 0.999999 0.000000 0.001300
vn 0.999999 0.000000 0.001300
vn 0.999999 0.000000 0.001300
vn 0.999999 0.000000 0.001300
vn 0.999999 0.000000 0.001300
vn -0.999999 0.000000 -0.001300
vn -0.999999 0.000000 -0.001300
vn -0.999999 0.000000 -0.001300
vn -0.999999 0.000000 -0.001300
vn -0.999999 0.000000 -0.001300
vn -0.999999 0.000000 -0.001300
vn 0.999999 0.000000 0.001300
vn 0.999999 0.000000 0.001300
vn 0.999999 0.000000 0.001300
vn 0.999999 0.000000 0.001300
vn 0.999999 0.000000 0.001300
vn 0.999999 0.000000 0.001300
vn 0.275989 0.961161 0.000400
vn -0.073599 0.997288 -0.000100
vn -0.118100 0.993002 -0.000200
vn 0.999999 0.000000 0.001300
vn 0.999999 0.000000 0.001300
vn 0.999999 0.000000 0.001300
vn 0.999999 0.000000 0.001300
vn 0.999999 0.000000 0.001300
vn 0.999999 0.000000 0.001300
vn -0.526984 -0.849875 -0.000700
vn -0.526984 -0.849875 -0.000700
vn -0.163102 -0.986609 -0.000200
vn -0.163102 -0.986609 -0.000200
vn -0.526984 -0.849875 -0.000700
vn -0.120896 -0.992665 -0.000200
vn -0.493714 0.869624 -0.000600
vn -0.504812 0.863220 -0.004000
vn -0.073599 0.997288 -0.000100
vn -0.073599 0.997288 -0.000100
vn -0.504812 0.863220 -0.004000
vn -0.118100 0.993002 -0.000200
vn -0.999999 0.000000 -0.001300
vn -0.999999 0.000000 -0.001300
vn -0.999999 0.000000 -0.001300
vn -0.999999 0.000000 -0.001300
vn -0.999999 0.000000 -0.001300
vn -0.999999 0.000000 -0.001300
vn -0.999999 0.000000 -0.001300
vn -0.999999 0.000000 -0.001300
vn -0.999999 0.000000 -0.001300
vn -0.999999 0.000000 -0.001300
vn -0.999999 0.000000 -0.001300
vn -0.999999 0.000000 -0.001300
vn -0.504812 0.863220 -0.004000
vn -0.501793 0.864988 -0.000700
vn -0.118100 0.993002 -0.000200
vn -0.118100 0.993002 -0.000200
vn 0.275989 0.961161 0.000400
vn -0.118100 0.993002 -0.000200
vn -0.118100 0.993002 -0.000200
vn 0.275989 0.961161 0.000400
vn 0.275989 0.961161 0.000400
vn -0.999999 0.000000 -0.001300
vn -0.999999 0.000000 -0.001300
vn -0.999999 0.000000 -0.001300
vn -0.999999 0.000000 -0.001300
vn -0.999999 0.000000 -0.001300
vn -0.999999 0.000000 -0.001300
vn -0.999999 0.000000 -0.001300
vn -0.999999 0.000000 -0.001300
vn -0.999999 0.000000 -0.001300
vn -0.999999 0.000000 -0.001300
vn -0.999999 0.000000 -0.001300
vn -0.999999 0.000000 -0.001300
s off
g polySurface1B_Electric_0_007_2
usemtl FridgePuertaInferior_lambert7SG
f 2/1/1 3/2/2 1/3/3
f 1/3/4 3/2/5 4/4/6
f 6/5/7 7/6/8 5/7/9
f 5/7/10 7/6/11 8/8/12
f 9/9/13 10/10/14 12/11/15
f 12/11/16 10/10/17 11/12/18
f 14/13/19 15/14/20 13/15/21
f 13/15/22 15/14/23 16/16/24
f 69/17/25 17/18/26 68/19/27
f 68/19/28 17/18/29 18/20/30
f 4/21/31 3/22/32 20/23/33
f 20/23/34 3/22/35 19/24/36
f 9/9/37 22/25/38 21/26/39
f 21/26/40 22/25/41 23/27/42
f 2/1/43 25/28/44 24/29/45
f 24/29/46 25/28/47 26/30/48
f 28/31/49 68/32/50 27/33/51
f 27/33/52 68/32/53 18/20/54
f 6/5/55 30/34/56 29/35/57
f 29/35/58 30/34/59 31/36/60
f 33/37/61 34/38/62 32/39/63
f 32/39/64 34/38/65 21/26/66
f 36/40/67 37/41/68 35/42/69
f 35/42/70 37/41/71 29/35/72
f 38/43/73 39/44/74 40/45/75
f 40/45/76 39/44/77 31/36/78
f 41/46/79 36/47/80 42/48/81
f 42/48/82 36/47/83 16/49/84
f 43/50/85 44/51/86 32/39/87
f 32/39/88 44/51/89 1/3/90
f 39/44/91 45/52/92 35/42/93
f 35/42/94 45/52/95 13/15/96
f 1/3/97 4/4/98 32/39/99
f 32/39/100 4/4/101 33/37/102
f 13/15/103 16/16/104 35/42/105
f 35/42/106 16/16/107 36/40/108
f 46/53/109 37/54/110 41/46/111
f 41/46/112 37/54/113 36/47/114
f 21/26/115 23/27/116 32/39/117
f 32/39/118 23/27/119 43/50/120
f 29/35/121 31/36/122 35/42/123
f 35/42/124 31/36/125 39/44/126
f 34/38/127 10/10/128 21/26/129
f 21/26/130 10/10/131 9/9/132
f 37/41/133 7/6/134 29/35/135
f 29/35/136 7/6/137 6/5/138
f 40/45/139 31/36/140 47/55/141
f 47/55/142 31/36/143 30/34/144
f 42/48/145 16/49/146 48/56/147
f 48/56/148 16/49/149 15/57/150
f 44/51/151 25/28/152 1/3/153
f 1/3/154 25/28/155 2/1/156
f 45/52/157 49/58/158 13/15/159
f 13/15/160 49/58/161 14/13/162
f 50/59/163 51/60/164 24/29/165
f 24/29/166 51/60/167 19/61/168
f 53/62/169 48/63/170 52/64/171
f 52/64/172 48/63/173 27/33/174
f 54/65/175 55/66/176 57/67/177
f 57/67/178 55/66/179 56/68/180
f 58/69/181 51/70/182 46/53/183
f 46/53/184 51/70/185 8/71/186
f 59/72/187 47/55/188 50/59/189
f 50/59/190 47/55/191 5/7/192
f 54/65/193 57/67/194 52/64/195
f 52/64/196 57/67/197 12/11/198
f 60/73/199 61/74/200 63/75/201
f 63/75/202 61/74/203 62/76/204
f 64/77/205 65/78/206 67/79/207
f 67/79/208 65/78/209 66/80/210
f 55/66/211 60/73/212 56/68/213
f 56/68/214 60/73/215 63/75/216
f 58/69/217 64/77/218 20/23/219
f 20/23/220 64/77/221 67/79/222
f 61/74/223 59/72/224 62/76/225
f 62/76/226 59/72/227 26/30/228
f 65/78/229 53/81/230 66/80/231
f 66/80/232 53/81/233 11/82/234
f 11/12/235 53/62/236 12/11/237
f 12/11/238 53/62/239 52/64/240
f 20/23/241 19/24/242 58/69/243
f 58/69/244 19/24/245 51/70/246
f 24/29/247 26/30/248 50/59/249
f 50/59/250 26/30/251 59/72/252
f 19/61/253 3/2/254 24/29/255
f 24/29/256 3/2/257 2/1/258
f 57/67/259 56/68/260 22/25/261
f 22/25/262 56/68/263 23/27/264
f 57/67/265 22/25/266 12/11/267
f 12/11/268 22/25/269 9/9/270
f 63/75/271 62/76/272 43/50/273
f 43/50/274 62/76/275 44/51/276
f 67/79/277 66/80/278 33/83/279
f 33/83/280 66/80/281 34/84/282
f 56/68/283 63/75/284 23/27/285
f 23/27/286 63/75/287 43/50/288
f 20/23/289 67/79/290 4/21/291
f 4/21/292 67/79/293 33/83/294
f 62/76/295 26/30/296 44/51/297
f 44/51/298 26/30/299 25/28/300
f 66/80/301 11/82/302 34/84/303
f 34/84/304 11/82/305 10/85/306
f 5/7/307 8/8/308 50/59/309
f 50/59/310 8/8/311 51/60/312
f 18/20/313 17/18/314 54/65/315
f 54/65/316 17/18/317 55/66/318
f 27/33/319 18/20/320 52/64/321
f 52/64/322 18/20/323 54/65/324
f 38/43/325 40/45/326 60/73/327
f 60/73/328 40/45/329 61/74/330
f 41/46/331 42/48/332 64/77/333
f 64/77/334 42/48/335 65/78/336
f 17/18/337 38/43/338 55/66/339
f 55/66/340 38/43/341 60/73/342
f 46/53/343 41/46/344 58/69/345
f 58/69/346 41/46/347 64/77/348
f 40/45/349 47/55/350 61/74/351
f 61/74/352 47/55/353 59/72/354
f 42/48/355 48/56/356 65/78/357
f 65/78/358 48/56/359 53/81/360
f 15/14/361 14/13/362 28/31/363
f 46/53/364 8/71/365 37/54/366
f 37/54/367 8/71/368 7/86/369
f 47/55/370 30/34/371 5/7/372
f 5/7/373 30/34/374 6/5/375
f 49/58/376 73/87/377 14/13/378
f 14/13/379 73/87/380 28/31/381
f 73/88/382 49/58/383 72/89/384
f 72/89/385 49/58/386 45/52/387
f 72/89/388 45/52/389 71/90/390
f 71/90/391 45/52/392 39/44/393
f 73/88/394 68/19/395 28/31/396
f 27/33/397 48/63/398 28/31/399
f 28/31/400 48/63/401 15/14/402
f 71/90/403 39/44/404 70/91/405
f 70/91/406 39/44/407 38/43/408
f 38/43/409 17/18/410 70/91/411
f 70/91/412 17/18/413 69/17/414
